<svg version="1.1" id="Layer_1" xmlns="http://www.w3.org/2000/svg" xmlns:xlink="http://www.w3.org/1999/xlink" x="0px" y="0px"
	 width="100%" viewBox="0 0 938 563" enable-background="new 0 0 938 563" xml:space="preserve">
<path fill="#FFFFFF" opacity="1.000000" stroke="none" 
	d="
M158.000000,564.000000 
	C105.681610,564.000000 53.363216,564.000000 1.022412,564.000000 
	C1.022412,376.401855 1.022412,188.803711 1.022412,1.000000 
	C257.691528,1.000000 514.383118,1.000000 771.484741,1.359859 
	C767.263123,4.147724 762.271667,6.076489 758.071655,9.103352 
	C748.046692,16.328146 739.451416,24.603470 739.919739,38.549541 
	C740.360107,51.662327 754.251709,62.683754 767.001831,59.439316 
	C778.570496,56.495514 787.440735,49.502407 794.482666,40.035755 
	C805.002319,25.893940 800.005554,11.875218 785.623474,3.783794 
	C784.309509,3.044547 783.202881,1.936686 782.000000,0.999997 
	C834.318420,1.000000 886.636780,1.000000 938.977600,1.000000 
	C938.977600,188.598145 938.977600,376.196289 938.977600,564.000000 
	C682.641785,564.000000 426.283539,564.000000 169.503738,563.647949 
	C170.314926,562.559387 171.513397,561.756836 172.785858,561.096985 
	C182.429901,556.096130 188.312958,546.299255 186.336670,536.829468 
	C183.496857,523.222107 175.794220,516.953552 162.978790,516.973938 
	C151.932663,516.991516 141.891342,525.097534 140.104126,535.439758 
	C138.183350,546.555054 144.288132,557.275818 154.803116,561.489563 
	C156.010239,561.973267 156.941055,563.146484 158.000000,564.000000 
M432.200134,284.317169 
	C432.126862,283.877930 432.053558,283.438690 432.216461,282.086823 
	C432.216461,266.533417 432.216461,250.979996 432.216461,235.400299 
	C425.410370,235.400299 419.199799,235.400299 413.001221,235.400299 
	C413.001221,263.845398 413.001221,291.922546 412.836029,320.665253 
	C412.906982,321.113342 412.977905,321.561432 412.809967,322.644531 
	C412.700500,323.083221 412.591034,323.521912 411.860260,324.066589 
	C410.356995,324.968719 408.853699,325.870880 407.170074,326.881256 
	C403.382416,322.425446 399.874268,318.298492 396.070740,313.824005 
	C394.310272,315.411316 392.939819,317.177948 391.141266,318.162628 
	C386.858673,320.507263 388.153290,322.441345 390.731842,325.356018 
	C398.407593,334.032379 406.024841,342.788849 413.126587,351.932190 
	C416.461029,356.225189 416.416779,357.731293 422.796600,352.618103 
	C423.904785,351.729858 424.747131,350.509949 425.893921,349.242401 
	C422.968018,345.681976 420.624817,341.940704 417.437286,339.171173 
	C413.205048,335.493896 413.780975,332.875336 418.501831,329.968811 
	C418.661865,329.919739 418.821899,329.870667 419.784241,329.975342 
	C420.868011,329.935089 421.951813,329.894836 423.964020,329.949158 
	C432.964600,329.918213 441.965179,329.887299 451.725128,330.018799 
	C452.495453,329.961853 453.265747,329.904907 454.959076,329.945557 
	C459.636047,329.915192 464.313049,329.884857 469.555206,329.974548 
	C469.847778,329.612335 470.140381,329.250153 470.633301,327.990295 
	C470.633301,322.759125 470.633301,317.527954 470.633301,312.171417 
	C465.967102,312.171417 462.004089,312.171417 457.288330,312.012634 
	C456.524384,312.071045 455.760406,312.129486 454.524597,312.020172 
	C454.366577,311.966370 454.208557,311.912598 453.929810,311.190918 
	C449.299835,305.642303 444.743317,300.029968 440.008545,294.572266 
	C437.681122,291.889496 435.023468,289.493225 432.415283,286.288391 
	C432.291595,285.849731 432.167938,285.411072 432.200134,284.317169 
M384.791779,385.413116 
	C385.521759,385.264923 386.251770,385.116760 387.900269,385.188202 
	C389.398865,385.226990 390.897491,385.299744 392.396088,385.299805 
	C558.037842,385.305176 723.679626,385.305695 889.321350,385.297363 
	C891.152222,385.297272 892.996399,385.295746 894.811584,385.092194 
	C900.875061,384.412231 906.018677,379.604492 907.018738,373.599213 
	C907.372559,371.475037 907.469604,369.287109 907.470520,367.128204 
	C907.493652,310.636719 907.492737,254.145203 907.471802,197.653702 
	C907.471069,195.660568 907.367737,193.645218 907.064026,191.678543 
	C906.096130,185.411743 900.920471,180.532867 894.601135,179.885681 
	C892.783142,179.699509 890.940796,179.701843 889.109619,179.701675 
	C804.122375,179.693817 719.135193,179.696060 634.147949,179.689865 
	C632.485474,179.689743 630.822937,179.603333 629.114014,178.886856 
	C632.210022,176.169998 635.427307,173.574783 638.339600,170.673462 
	C639.428650,169.588593 640.771790,167.137466 640.308655,166.452896 
	C639.338623,165.019058 637.240601,163.560196 635.617249,163.572906 
	C633.910706,163.586243 632.045166,165.095718 630.549744,166.318893 
	C625.289917,170.621109 620.159241,175.081253 614.107239,179.683289 
	C611.422302,179.618866 608.737427,179.554443 605.914978,178.866379 
	C599.238037,170.951874 592.561035,163.037369 585.664551,154.862640 
	C582.467407,157.627090 579.866272,159.876236 577.252869,162.135925 
	C582.006836,168.198105 586.467102,173.885773 590.008545,179.706055 
	C583.992310,179.776398 577.976074,179.846756 571.466370,179.777618 
	C571.305542,179.835571 571.144653,179.893524 570.377441,179.771179 
	C569.973694,179.652283 569.569885,179.533386 568.929077,178.800354 
	C564.613586,173.156677 560.860779,177.679825 556.311707,179.648407 
	C555.872986,179.733688 555.434265,179.818954 554.272888,179.706894 
	C553.533508,179.768616 552.794128,179.830338 551.120056,179.742325 
	C455.477600,179.729645 359.835114,179.702225 264.192657,179.724457 
	C253.187775,179.727005 247.818939,185.284668 247.774719,196.464951 
	C247.722656,209.628113 247.761368,222.791626 247.761032,235.954987 
	C247.760818,243.776550 249.256393,245.437012 257.933472,246.900848 
	C257.933472,230.548492 257.930542,214.256058 257.934753,197.963638 
	C257.936829,190.000931 258.047821,189.886230 266.108856,189.885956 
	C351.754059,189.883102 437.399231,189.881653 523.044434,189.889008 
	C529.040527,189.889526 535.036682,189.962997 540.949219,190.694107 
	C537.536987,196.306015 533.307739,201.592758 530.913025,207.609619 
	C527.700256,215.681870 531.052307,223.185883 536.761719,228.983200 
	C542.028503,234.331146 548.619446,237.151550 556.648438,235.298401 
	C572.549194,231.628479 582.300598,220.107666 591.734253,208.204315 
	C592.442627,207.310501 592.007385,204.651749 591.157349,203.531555 
	C587.659424,198.921799 583.795837,194.589539 580.574158,189.940811 
	C580.736572,189.854553 580.898926,189.768280 581.975403,189.831711 
	C586.964722,189.802094 591.953979,189.772476 597.661499,189.914093 
	C598.142456,189.828415 598.623413,189.742752 599.724854,189.818832 
	C600.139832,189.919266 600.554871,190.019714 601.269714,190.719223 
	C605.785278,197.974045 606.329773,198.080688 612.677856,192.889450 
	C613.800720,191.971191 614.889038,191.010651 616.492615,189.888702 
	C616.659668,189.830093 616.826660,189.771469 617.675110,189.880981 
	C618.136108,189.824127 618.597107,189.767288 619.977478,189.852859 
	C709.809204,189.865753 799.640869,189.877182 889.472595,189.894165 
	C896.817993,189.895554 897.116333,190.192062 897.117004,197.491531 
	C897.122070,254.157288 897.120056,310.823059 897.118164,367.488800 
	C897.118164,368.655243 897.529846,370.112000 896.987732,370.926178 
	C895.941223,372.497742 894.566345,374.196167 892.921570,374.923309 
	C891.382812,375.603516 889.318359,375.107025 887.485291,375.107056 
	C725.654602,375.109009 563.823853,375.109314 401.993164,375.103302 
	C400.329651,375.103241 398.666168,375.018829 397.279602,374.324432 
	C397.589020,373.734619 397.880585,373.134644 398.210602,372.556610 
	C401.256653,367.221436 402.970764,361.753448 398.718475,356.295166 
	C394.053894,350.307678 387.922028,351.108551 381.956116,353.604187 
	C375.366669,356.360687 369.091553,359.868835 362.500854,362.621887 
	C360.508118,363.454224 357.920898,362.863434 355.605988,362.924500 
	C356.303467,360.561920 356.639465,357.996613 357.814331,355.901794 
	C358.731812,354.265869 360.551300,352.993378 362.212494,351.942780 
	C368.070465,348.238007 374.032806,344.698303 379.996643,341.071014 
	C376.428711,334.139282 375.520081,333.589233 368.795135,337.751434 
	C362.757599,341.488098 356.387299,345.233490 351.602203,350.326477 
	C343.269196,359.195648 340.067841,366.925629 350.047821,375.104095 
	C321.557281,375.103668 293.066772,375.114929 264.576233,375.093292 
	C258.578583,375.088745 257.970245,374.459503 257.952332,368.479736 
	C257.923370,358.816345 257.944153,349.152832 257.944031,339.489349 
	C257.943939,331.247925 257.944000,323.006531 257.944000,314.570251 
	C247.628326,318.442627 247.628189,318.442627 247.628342,328.377747 
	C247.628540,341.373444 247.590881,354.369293 247.640182,367.364807 
	C247.688477,380.097168 252.870300,385.258453 265.494080,385.310944 
	C279.984497,385.371155 294.474854,385.440613 308.837158,386.145813 
	C304.432861,389.940094 304.474243,394.532318 306.027954,399.674896 
	C307.317444,403.942932 308.050018,408.380035 309.012573,412.745941 
	C311.136108,422.377899 313.249023,432.012177 315.551880,442.489990 
	C317.411499,440.842255 318.445068,439.462524 319.823669,438.787323 
	C325.084686,436.210632 325.396790,432.156952 323.982849,427.175903 
	C323.621185,425.901917 323.961731,423.709320 324.851044,422.917572 
	C330.172943,418.179718 335.906555,413.900513 341.174408,409.107361 
	C343.787842,406.729431 345.918976,406.927765 348.789398,408.285980 
	C350.585510,409.135864 353.290588,410.047150 354.714020,409.289429 
	C357.670166,407.715851 360.044647,405.049561 363.112335,402.447205 
	C360.051361,401.080872 357.653351,399.969971 355.223724,398.933014 
	C345.167572,394.640961 335.101837,390.371277 325.900909,386.037537 
	C328.619934,385.828674 331.338959,385.619843 334.983337,385.337738 
	C345.264587,385.348755 355.545807,385.359741 365.788635,385.998901 
	C364.686768,386.814941 363.584869,387.630981 361.510651,389.167145 
	C364.350281,391.234436 367.523254,394.921051 368.949738,394.337585 
	C374.292419,392.152466 379.064026,388.571136 384.791779,385.413116 
M485.505432,247.986908 
	C485.505432,247.986908 485.087006,248.053558 484.246185,248.003586 
	C475.708954,244.836868 471.025818,250.412430 465.824066,256.000153 
	C468.715698,259.155365 471.442200,262.130402 474.124786,265.878906 
	C473.223480,272.908630 472.322144,279.938385 470.740448,286.760132 
	C466.354492,281.601349 461.851807,276.536255 457.615540,271.257355 
	C453.391968,265.994263 452.592468,265.844299 447.693237,270.816467 
	C446.696289,271.828247 445.832886,272.971558 444.800446,274.180023 
	C454.659119,285.955475 464.215210,297.369476 473.695007,308.692352 
	C475.420410,307.990906 476.609833,307.507355 478.229553,307.567932 
	C492.516449,330.095398 519.703552,338.019501 542.612549,326.333344 
	C565.284973,314.767822 575.332703,288.133484 566.034973,264.245270 
	C559.188232,246.654282 540.377808,233.202332 523.434692,234.026001 
	C522.903198,233.806198 522.371765,233.586395 521.763306,232.658035 
	C518.042114,227.957535 514.320862,223.257050 510.333374,218.220245 
	C506.926727,221.178955 504.379517,223.391235 501.736237,225.686951 
	C504.423218,229.038956 506.683563,231.858734 508.216614,234.962967 
	C499.642548,237.325760 491.891479,241.101471 485.505432,247.986908 
M747.503662,312.051697 
	C742.724060,312.051697 737.944458,312.051697 733.079224,312.051697 
	C733.079224,303.915100 733.079224,296.358521 733.079224,288.301819 
	C744.815186,288.301819 756.229065,288.301819 767.876282,288.301819 
	C767.876282,282.242065 767.876282,276.691406 767.876282,270.646790 
	C756.153687,270.646790 744.733826,270.646790 733.036499,270.646790 
	C733.036499,264.592041 733.036499,259.030151 733.036499,252.873199 
	C743.123901,252.873199 753.014160,252.873199 762.947266,252.873199 
	C762.947266,246.686874 762.947266,241.097809 762.947266,235.432800 
	C746.153320,235.432800 729.633118,235.432800 712.741577,235.432800 
	C712.741577,247.266052 712.741577,258.701324 712.741577,270.324066 
	C698.150574,270.324066 683.938232,270.324066 669.114868,270.324066 
	C669.114868,258.426544 669.114868,246.879333 669.114868,235.289398 
	C662.406189,235.289398 656.313538,235.289398 650.064819,235.289398 
	C650.064819,266.899811 650.064819,298.251038 650.064819,329.555023 
	C656.629395,329.555023 662.833679,329.555023 669.469849,329.555023 
	C669.469849,315.721771 669.469849,302.297913 669.469849,288.687134 
	C684.141357,288.687134 698.360718,288.687134 713.123657,288.687134 
	C713.123657,302.598541 713.123657,316.159332 713.123657,329.660095 
	C732.909668,329.660095 752.148438,329.660095 771.575500,329.660095 
	C771.575500,323.770691 771.575500,318.190918 771.575500,312.051697 
	C763.723877,312.051697 756.113403,312.051697 747.503662,312.051697 
M96.634079,256.670837 
	C100.386116,260.131042 104.138153,263.591217 108.182610,267.321075 
	C112.848457,263.924225 117.904793,260.243073 122.919777,256.592041 
	C110.527847,235.603073 82.770317,227.529419 60.481922,238.073318 
	C37.664337,248.867584 26.797915,275.870880 35.677406,299.713135 
	C44.565712,323.579071 69.693474,336.586426 94.280159,329.809509 
	C119.146477,322.955597 132.446594,298.079315 129.954712,278.376465 
	C114.074211,278.376465 98.179138,278.376465 82.251236,278.376465 
	C82.251236,284.254364 82.251236,289.816071 82.251236,295.900635 
	C90.632416,295.900635 98.682098,295.900635 106.841110,295.900635 
	C104.029251,307.473206 88.144569,315.750397 73.319244,311.306610 
	C56.877842,306.378387 48.492123,287.530243 55.078804,270.723602 
	C61.613094,254.050613 79.164490,247.848892 96.634079,256.670837 
M223.450958,317.948761 
	C235.372009,305.927917 240.293152,291.553223 237.968567,274.746826 
	C234.565887,250.145813 210.606018,231.139114 186.043503,233.551285 
	C158.941345,236.212845 138.813553,258.397064 140.454102,284.127228 
	C141.755310,304.535339 151.631454,319.657990 170.500946,327.577789 
	C189.535080,335.566681 207.291290,332.043671 223.450958,317.948761 
M303.236542,292.120941 
	C303.520447,293.250366 303.788269,294.384125 304.090637,295.508545 
	C310.113739,317.906891 331.972595,333.565796 354.294708,331.477112 
	C378.582275,329.204559 397.819733,311.030579 399.733246,288.396393 
	C399.123627,288.278717 398.497772,288.055786 397.870941,288.052887 
	C392.050720,288.026001 386.230286,288.036987 380.516357,288.036987 
	C373.104858,306.071167 363.482697,313.517761 349.233063,312.420624 
	C336.491394,311.439636 326.550201,302.641754 323.459869,289.611633 
	C320.413391,276.766296 325.910980,262.300995 337.122223,256.399719 
	C341.766785,253.954987 347.532410,252.590073 352.791077,252.581863 
	C363.534180,252.565094 371.295807,258.938934 377.616852,267.354431 
	C382.833496,263.640320 387.689392,260.183044 392.738800,256.588013 
	C391.886200,255.184372 391.285645,254.014786 390.521271,252.964386 
	C378.427338,236.344589 355.106506,229.268387 335.599640,235.902176 
	C314.457001,243.092239 298.725891,265.373840 303.236542,292.120941 
M840.095032,285.522614 
	C834.896057,275.958527 826.595520,271.200409 816.025574,269.821655 
	C812.739624,269.393036 809.376099,268.963989 806.269775,267.892365 
	C801.592896,266.278961 799.821045,262.452209 801.061462,257.962311 
	C802.160950,253.982452 806.493896,251.383652 810.980652,252.562378 
	C813.976868,253.349503 816.759216,254.950790 820.206055,256.432190 
	C824.695374,253.164703 829.740295,249.492813 835.384033,245.385071 
	C831.947815,242.600113 829.370911,239.886200 826.260376,238.103439 
	C815.232788,231.783188 804.090393,231.308807 793.398926,238.904892 
	C783.773376,245.743668 779.719482,255.245651 782.215942,266.794678 
	C784.912292,279.268738 794.067383,285.030609 805.843323,287.514709 
	C809.082642,288.198029 812.449402,288.642365 815.477966,289.880585 
	C821.199646,292.219910 823.996765,298.137970 822.547485,303.742523 
	C821.087769,309.387482 816.319458,313.304932 810.231628,312.303162 
	C805.408997,311.509583 800.870667,308.988068 795.322571,306.901489 
	C791.315369,309.860718 786.151611,313.674042 780.973938,317.497681 
	C792.531921,331.706879 813.514954,335.704529 828.183899,326.815308 
	C842.019592,318.431030 847.002136,301.900024 840.095032,285.522614 
M613.124939,311.499390 
	C613.124939,292.079315 613.124939,272.659241 613.124939,252.840363 
	C621.754944,252.840363 629.689819,252.840363 637.738403,252.840363 
	C637.738403,246.725067 637.738403,241.020554 637.738403,235.396057 
	C614.996094,235.396057 592.612366,235.396057 570.287842,235.396057 
	C570.287842,241.362228 570.287842,246.953964 570.287842,253.000244 
	C577.988037,253.000244 585.409485,253.000244 593.403687,253.000244 
	C593.403687,278.840881 593.403687,304.226532 593.403687,329.680298 
	C600.238098,329.680298 606.484253,329.680298 613.125000,329.680298 
	C613.125000,323.761078 613.125000,318.129944 613.124939,311.499390 
M272.040100,455.396240 
	C272.663757,458.262390 273.287415,461.128540 274.066437,464.708801 
	C271.959839,463.992065 270.433716,463.556396 268.972137,462.962036 
	C259.432007,459.082520 249.949982,455.054016 240.341461,451.353333 
	C238.174637,450.518799 234.943604,449.750885 233.314789,450.755585 
	C229.467514,453.128601 226.289597,456.586761 222.399841,459.992310 
	C232.570770,472.090271 242.332153,483.701080 252.394226,495.669586 
	C255.543564,492.818115 258.187164,490.424561 260.876282,487.989807 
	C253.794342,479.491394 246.913132,471.233826 240.031906,462.976257 
	C241.848801,462.391174 242.934433,462.598328 243.939362,463.004913 
	C253.178055,466.743042 262.464264,470.374237 271.602783,474.344666 
	C275.526489,476.049408 277.945618,473.863647 280.548065,471.867798 
	C283.023010,469.969818 284.712982,467.820587 283.671051,464.200348 
	C282.254608,459.278809 281.282104,454.224274 280.238251,449.202057 
	C279.043762,443.455017 277.979828,437.680878 276.859131,431.918488 
	C277.239258,431.717407 277.619354,431.516357 277.999481,431.315277 
	C285.047302,439.509949 292.095123,447.704620 299.194519,455.959229 
	C301.667206,454.006195 303.927582,452.717133 305.433807,450.827087 
	C306.216125,449.845490 306.352905,447.250885 305.609833,446.323730 
	C298.870392,437.914001 292.039703,429.563568 284.904633,421.488342 
	C276.996185,412.537842 276.230225,412.599854 268.050781,421.617249 
	C266.795288,423.001373 265.875549,425.583954 266.199402,427.356659 
	C267.864807,436.471741 269.987000,445.503357 272.040100,455.396240 
M686.023560,86.000946 
	C690.606201,102.412155 703.951599,109.278519 719.525635,102.556564 
	C731.576599,97.355202 740.482727,88.128059 747.905884,77.484917 
	C748.505310,76.625496 748.754028,74.674507 748.210632,73.998817 
	C743.783447,68.493584 739.128784,63.171265 734.325623,57.537983 
	C727.481262,63.355076 721.210083,68.684982 714.470398,74.413116 
	C716.520630,76.709946 718.331055,78.738113 720.244202,80.881340 
	C724.161316,77.791626 727.747437,74.962936 731.290039,72.168587 
	C734.954285,75.062675 736.385681,78.266495 732.995789,81.287292 
	C728.208740,85.553062 723.236450,89.858757 717.676270,92.946098 
	C710.790039,96.769775 704.902832,94.657593 699.427734,87.927422 
	C695.972839,83.680534 695.713562,75.334084 700.031311,70.781128 
	C704.861633,65.687714 710.439331,61.201969 716.144226,57.077553 
	C719.484741,54.662445 723.708069,53.468407 727.583862,51.702484 
	C721.714172,44.094013 721.645752,43.965385 713.703125,48.191666 
	C709.766113,50.286499 705.785339,52.550171 702.431519,55.441635 
	C693.364807,63.258312 684.967102,71.641289 686.023560,86.000946 
M688.974548,114.969116 
	C684.603882,99.259888 671.845276,91.259293 657.837524,96.359520 
	C645.934631,100.693390 636.578064,108.630028 630.932251,120.248489 
	C626.763245,128.827805 629.012573,139.723251 635.937683,146.405258 
	C643.037659,153.255844 652.876465,154.976212 661.726562,150.602432 
	C665.725586,148.626144 669.830322,146.562088 673.238708,143.751556 
	C681.993103,136.532761 689.608521,128.439362 688.974548,114.969116 
M214.905640,517.466675 
	C209.074875,520.760132 203.244110,524.053528 197.412872,527.347168 
	C201.850250,534.625671 201.850433,534.626038 209.412094,530.819458 
	C210.154892,530.445496 210.925201,530.114685 211.630142,529.678833 
	C221.141525,523.797119 230.446396,517.691467 235.089661,506.819946 
	C238.417572,499.028107 232.295807,489.512787 224.312668,490.533783 
	C220.123398,491.069580 215.943237,492.459503 212.017563,494.087311 
	C206.348160,496.438232 200.974915,499.497864 195.334122,501.927307 
	C193.994293,502.504364 192.094147,501.780396 190.451736,501.654907 
	C190.755569,499.816406 190.399673,497.270935 191.479141,496.263611 
	C195.812759,492.219727 200.391251,488.360870 205.276321,485.013062 
	C208.431564,482.850708 212.276688,481.695007 215.887451,480.054199 
	C210.293274,472.783752 209.922394,472.209534 202.811584,476.802368 
	C195.778030,481.345245 188.969604,486.610321 183.203918,492.648590 
	C175.893463,500.304565 178.011185,510.650879 186.970108,513.184998 
	C190.265472,514.117188 194.581375,513.210632 197.916794,511.865692 
	C204.971268,509.020996 211.611740,505.163086 218.598022,502.125549 
	C220.191467,501.432709 222.499237,502.382812 224.478241,502.576752 
	C224.271011,504.604218 224.762466,507.156158 223.714386,508.552399 
	C221.369202,511.676575 218.257339,514.225220 214.905640,517.466675 
z"/>
<path fill="#E2E2E2" opacity="1.000000" stroke="none" 
	d="
M781.545898,0.999997 
	C783.202881,1.936686 784.309509,3.044547 785.623474,3.783794 
	C800.005554,11.875218 805.002319,25.893940 794.482666,40.035755 
	C787.440735,49.502407 778.570496,56.495514 767.001831,59.439316 
	C754.251709,62.683754 740.360107,51.662327 739.919739,38.549541 
	C739.451416,24.603470 748.046692,16.328146 758.071655,9.103352 
	C762.271667,6.076489 767.263123,4.147724 771.947388,1.359859 
	C775.030579,1.000000 778.061218,1.000000 781.545898,0.999997 
M782.238464,15.107207 
	C777.546692,11.329345 772.107666,10.932549 767.438171,14.039932 
	C762.177673,17.540617 756.790527,21.624985 753.198792,26.689671 
	C746.755005,35.776169 754.251831,49.977612 765.209717,49.612804 
	C773.488647,49.337185 780.173035,44.476860 785.031677,37.798676 
	C791.414368,29.025738 790.658203,22.882582 782.238464,15.107207 
z"/>
<path fill="#E2E2E2" opacity="1.000000" stroke="none" 
	d="
M158.458069,564.000000 
	C156.941055,563.146484 156.010239,561.973267 154.803116,561.489563 
	C144.288132,557.275818 138.183350,546.555054 140.104126,535.439758 
	C141.891342,525.097534 151.932663,516.991516 162.978790,516.973938 
	C175.794220,516.953552 183.496857,523.222107 186.336670,536.829468 
	C188.312958,546.299255 182.429901,556.096130 172.785858,561.096985 
	C171.513397,561.756836 170.314926,562.559387 169.041107,563.647949 
	C165.638718,564.000000 162.277420,564.000000 158.458069,564.000000 
M144.214798,541.201721 
	C144.582352,542.644592 144.910461,544.098877 145.323868,545.528503 
	C147.922897,554.516174 157.426117,560.761841 166.527771,558.821655 
	C176.241974,556.750854 183.396927,549.904480 182.000336,536.366150 
	C181.146240,528.086670 172.935974,521.097778 163.886322,520.999817 
	C152.949951,520.881531 146.707672,526.999146 144.214798,541.201721 
z"/>
<path fill="#1976D2" opacity="1.000000" stroke="none" 
	d="
M397.002655,374.973816 
	C398.666168,375.018829 400.329651,375.103241 401.993164,375.103302 
	C563.823853,375.109314 725.654602,375.109009 887.485291,375.107056 
	C889.318359,375.107025 891.382812,375.603516 892.921570,374.923309 
	C894.566345,374.196167 895.941223,372.497742 896.987732,370.926178 
	C897.529846,370.112000 897.118164,368.655243 897.118164,367.488800 
	C897.120056,310.823059 897.122070,254.157288 897.117004,197.491531 
	C897.116333,190.192062 896.817993,189.895554 889.472595,189.894165 
	C799.640869,189.877182 709.809204,189.865753 619.510376,189.543091 
	C619.043274,189.233307 618.979248,188.760239 619.046387,188.439896 
	C621.765015,185.426132 624.416565,182.732727 627.420776,179.970337 
	C628.235718,179.786636 628.698120,179.671921 629.160461,179.557190 
	C630.822937,179.603333 632.485474,179.689743 634.147949,179.689865 
	C719.135193,179.696060 804.122375,179.693817 889.109619,179.701675 
	C890.940796,179.701843 892.783142,179.699509 894.601135,179.885681 
	C900.920471,180.532867 906.096130,185.411743 907.064026,191.678543 
	C907.367737,193.645218 907.471069,195.660568 907.471802,197.653702 
	C907.492737,254.145203 907.493652,310.636719 907.470520,367.128204 
	C907.469604,369.287109 907.372559,371.475037 907.018738,373.599213 
	C906.018677,379.604492 900.875061,384.412231 894.811584,385.092194 
	C892.996399,385.295746 891.152222,385.297272 889.321350,385.297363 
	C723.679626,385.305695 558.037842,385.305176 392.396088,385.299805 
	C390.897491,385.299744 389.398865,385.226990 387.589996,384.782043 
	C390.158997,381.375275 393.038300,378.374664 396.192566,375.284088 
	C396.645935,375.120667 396.824310,375.047241 397.002655,374.973816 
z"/>
<path fill="#02BDEC" opacity="1.000000" stroke="none" 
	d="
M748.003296,312.051697 
	C756.113403,312.051697 763.723877,312.051697 771.575500,312.051697 
	C771.575500,318.190918 771.575500,323.770691 771.575500,329.660095 
	C752.148438,329.660095 732.909668,329.660095 713.123657,329.660095 
	C713.123657,316.159332 713.123657,302.598541 713.123657,288.687134 
	C698.360718,288.687134 684.141357,288.687134 669.469849,288.687134 
	C669.469849,302.297913 669.469849,315.721771 669.469849,329.555023 
	C662.833679,329.555023 656.629395,329.555023 650.064819,329.555023 
	C650.064819,298.251038 650.064819,266.899811 650.064819,235.289398 
	C656.313538,235.289398 662.406189,235.289398 669.114868,235.289398 
	C669.114868,246.879333 669.114868,258.426544 669.114868,270.324066 
	C683.938232,270.324066 698.150574,270.324066 712.741577,270.324066 
	C712.741577,258.701324 712.741577,247.266052 712.741577,235.432800 
	C729.633118,235.432800 746.153320,235.432800 762.947266,235.432800 
	C762.947266,241.097809 762.947266,246.686874 762.947266,252.873199 
	C753.014160,252.873199 743.123901,252.873199 733.036499,252.873199 
	C733.036499,259.030151 733.036499,264.592041 733.036499,270.646790 
	C744.733826,270.646790 756.153687,270.646790 767.876282,270.646790 
	C767.876282,276.691406 767.876282,282.242065 767.876282,288.301819 
	C756.229065,288.301819 744.815186,288.301819 733.079224,288.301819 
	C733.079224,296.358521 733.079224,303.915100 733.079224,312.051697 
	C737.944458,312.051697 742.724060,312.051697 748.003296,312.051697 
z"/>
<path fill="#1976D2" opacity="1.000000" stroke="none" 
	d="
M96.324425,256.464905 
	C79.164490,247.848892 61.613094,254.050613 55.078804,270.723602 
	C48.492123,287.530243 56.877842,306.378387 73.319244,311.306610 
	C88.144569,315.750397 104.029251,307.473206 106.841110,295.900635 
	C98.682098,295.900635 90.632416,295.900635 82.251236,295.900635 
	C82.251236,289.816071 82.251236,284.254364 82.251236,278.376465 
	C98.179138,278.376465 114.074211,278.376465 129.954712,278.376465 
	C132.446594,298.079315 119.146477,322.955597 94.280159,329.809509 
	C69.693474,336.586426 44.565712,323.579071 35.677406,299.713135 
	C26.797915,275.870880 37.664337,248.867584 60.481922,238.073318 
	C82.770317,227.529419 110.527847,235.603073 122.919777,256.592041 
	C117.904793,260.243073 112.848457,263.924225 108.182610,267.321075 
	C104.138153,263.591217 100.386116,260.131042 96.324425,256.464905 
z"/>
<path fill="#1976D2" opacity="1.000000" stroke="none" 
	d="
M223.187561,318.189331 
	C207.291290,332.043671 189.535080,335.566681 170.500946,327.577789 
	C151.631454,319.657990 141.755310,304.535339 140.454102,284.127228 
	C138.813553,258.397064 158.941345,236.212845 186.043503,233.551285 
	C210.606018,231.139114 234.565887,250.145813 237.968567,274.746826 
	C240.293152,291.553223 235.372009,305.927917 223.187561,318.189331 
M173.729767,257.096161 
	C162.777542,265.175201 158.955078,276.167236 161.476807,289.198761 
	C164.071594,302.607666 174.275009,311.272705 187.872726,312.520081 
	C199.280716,313.566620 210.830292,306.362579 215.702423,295.161377 
	C221.072723,282.814850 218.006012,268.315674 208.150818,259.458160 
	C198.713623,250.976364 185.946838,249.953125 173.729767,257.096161 
z"/>
<path fill="#1976D2" opacity="1.000000" stroke="none" 
	d="
M303.174194,291.700256 
	C298.725891,265.373840 314.457001,243.092239 335.599640,235.902176 
	C355.106506,229.268387 378.427338,236.344589 390.521271,252.964386 
	C391.285645,254.014786 391.886200,255.184372 392.738800,256.588013 
	C387.689392,260.183044 382.833496,263.640320 377.616852,267.354431 
	C371.295807,258.938934 363.534180,252.565094 352.791077,252.581863 
	C347.532410,252.590073 341.766785,253.954987 337.122223,256.399719 
	C325.910980,262.300995 320.413391,276.766296 323.459869,289.611633 
	C326.550201,302.641754 336.491394,311.439636 349.233063,312.420624 
	C363.482697,313.517761 373.104858,306.071167 380.516357,288.036987 
	C386.230286,288.036987 392.050720,288.026001 397.870941,288.052887 
	C398.497772,288.055786 399.123627,288.278717 399.733246,288.396393 
	C397.819733,311.030579 378.582275,329.204559 354.294708,331.477112 
	C331.972595,333.565796 310.113739,317.906891 304.090637,295.508545 
	C303.788269,294.384125 303.520447,293.250366 303.174194,291.700256 
z"/>
<path fill="#01BDEC" opacity="1.000000" stroke="none" 
	d="
M541.032776,190.002533 
	C535.036682,189.962997 529.040527,189.889526 523.044434,189.889008 
	C437.399231,189.881653 351.754059,189.883102 266.108856,189.885956 
	C258.047821,189.886230 257.936829,190.000931 257.934753,197.963638 
	C257.930542,214.256058 257.933472,230.548492 257.933472,246.900848 
	C249.256393,245.437012 247.760818,243.776550 247.761032,235.954987 
	C247.761368,222.791626 247.722656,209.628113 247.774719,196.464951 
	C247.818939,185.284668 253.187775,179.727005 264.192657,179.724457 
	C359.835114,179.702225 455.477600,179.729645 551.475464,180.101410 
	C551.552429,181.004211 551.274048,181.547928 550.894043,182.294388 
	C550.598694,182.744431 550.350342,182.909729 549.817078,183.097992 
	C549.390320,183.470703 549.193970,183.738480 548.822144,184.264008 
	C547.439270,185.347015 546.231750,186.172272 544.701660,187.027496 
	C543.558777,187.917099 542.738525,188.776764 541.688110,189.706802 
	C541.458008,189.777191 541.032776,190.002533 541.032776,190.002533 
z"/>
<path fill="#1976D2" opacity="1.000000" stroke="none" 
	d="
M840.259705,285.863281 
	C847.002136,301.900024 842.019592,318.431030 828.183899,326.815308 
	C813.514954,335.704529 792.531921,331.706879 780.973938,317.497681 
	C786.151611,313.674042 791.315369,309.860718 795.322571,306.901489 
	C800.870667,308.988068 805.408997,311.509583 810.231628,312.303162 
	C816.319458,313.304932 821.087769,309.387482 822.547485,303.742523 
	C823.996765,298.137970 821.199646,292.219910 815.477966,289.880585 
	C812.449402,288.642365 809.082642,288.198029 805.843323,287.514709 
	C794.067383,285.030609 784.912292,279.268738 782.215942,266.794678 
	C779.719482,255.245651 783.773376,245.743668 793.398926,238.904892 
	C804.090393,231.308807 815.232788,231.783188 826.260376,238.103439 
	C829.370911,239.886200 831.947815,242.600113 835.384033,245.385071 
	C829.740295,249.492813 824.695374,253.164703 820.206055,256.432190 
	C816.759216,254.950790 813.976868,253.349503 810.980652,252.562378 
	C806.493896,251.383652 802.160950,253.982452 801.061462,257.962311 
	C799.821045,262.452209 801.592896,266.278961 806.269775,267.892365 
	C809.376099,268.963989 812.739624,269.393036 816.025574,269.821655 
	C826.595520,271.200409 834.896057,275.958527 840.259705,285.863281 
z"/>
<path fill="#1976D2" opacity="1.000000" stroke="none" 
	d="
M613.125000,311.999084 
	C613.125000,318.129944 613.125000,323.761078 613.125000,329.680298 
	C606.484253,329.680298 600.238098,329.680298 593.403687,329.680298 
	C593.403687,304.226532 593.403687,278.840881 593.403687,253.000244 
	C585.409485,253.000244 577.988037,253.000244 570.287842,253.000244 
	C570.287842,246.953964 570.287842,241.362228 570.287842,235.396057 
	C592.612366,235.396057 614.996094,235.396057 637.738403,235.396057 
	C637.738403,241.020554 637.738403,246.725067 637.738403,252.840363 
	C629.689819,252.840363 621.754944,252.840363 613.124939,252.840363 
	C613.124939,272.659241 613.124939,292.079315 613.125000,311.999084 
z"/>
<path fill="#E2E2E2" opacity="1.000000" stroke="none" 
	d="
M271.994904,454.980164 
	C269.987000,445.503357 267.864807,436.471741 266.199402,427.356659 
	C265.875549,425.583954 266.795288,423.001373 268.050781,421.617249 
	C276.230225,412.599854 276.996185,412.537842 284.904633,421.488342 
	C292.039703,429.563568 298.870392,437.914001 305.609833,446.323730 
	C306.352905,447.250885 306.216125,449.845490 305.433807,450.827087 
	C303.927582,452.717133 301.667206,454.006195 299.194519,455.959229 
	C292.095123,447.704620 285.047302,439.509949 277.999481,431.315277 
	C277.619354,431.516357 277.239258,431.717407 276.859131,431.918488 
	C277.979828,437.680878 279.043762,443.455017 280.238251,449.202057 
	C281.282104,454.224274 282.254608,459.278809 283.671051,464.200348 
	C284.712982,467.820587 283.023010,469.969818 280.548065,471.867798 
	C277.945618,473.863647 275.526489,476.049408 271.602783,474.344666 
	C262.464264,470.374237 253.178055,466.743042 243.939362,463.004913 
	C242.934433,462.598328 241.848801,462.391174 240.031906,462.976257 
	C246.913132,471.233826 253.794342,479.491394 260.876282,487.989807 
	C258.187164,490.424561 255.543564,492.818115 252.394226,495.669586 
	C242.332153,483.701080 232.570770,472.090271 222.399841,459.992310 
	C226.289597,456.586761 229.467514,453.128601 233.314789,450.755585 
	C234.943604,449.750885 238.174637,450.518799 240.341461,451.353333 
	C249.949982,455.054016 259.432007,459.082520 268.972137,462.962036 
	C270.433716,463.556396 271.959839,463.992065 274.066437,464.708801 
	C273.287415,461.128540 272.663757,458.262390 271.994904,454.980164 
z"/>
<path fill="#06BEEC" opacity="1.000000" stroke="none" 
	d="
M308.965240,385.506042 
	C294.474854,385.440613 279.984497,385.371155 265.494080,385.310944 
	C252.870300,385.258453 247.688477,380.097168 247.640182,367.364807 
	C247.590881,354.369293 247.628540,341.373444 247.628342,328.377747 
	C247.628189,318.442627 247.628326,318.442627 257.944000,314.570251 
	C257.944000,323.006531 257.943939,331.247925 257.944031,339.489349 
	C257.944153,349.152832 257.923370,358.816345 257.952332,368.479736 
	C257.970245,374.459503 258.578583,375.088745 264.576233,375.093292 
	C293.066772,375.114929 321.557281,375.103668 350.955414,375.121368 
	C354.579834,375.080902 357.296692,375.023132 360.476562,375.037781 
	C368.629852,375.195740 376.320160,375.281250 383.813110,375.619263 
	C379.413361,378.873047 375.210999,381.874329 370.576080,384.927673 
	C368.704712,385.110077 367.265869,385.240417 365.827057,385.370758 
	C355.545807,385.359741 345.264587,385.348755 334.071777,385.235565 
	C329.137817,385.237671 325.115479,385.341919 320.630188,385.385254 
	C316.433258,385.384888 312.699249,385.445465 308.965240,385.506042 
z"/>
<path fill="#E2E2E2" opacity="1.000000" stroke="none" 
	d="
M686.010803,85.565323 
	C684.967102,71.641289 693.364807,63.258312 702.431519,55.441635 
	C705.785339,52.550171 709.766113,50.286499 713.703125,48.191666 
	C721.645752,43.965385 721.714172,44.094013 727.583862,51.702484 
	C723.708069,53.468407 719.484741,54.662445 716.144226,57.077553 
	C710.439331,61.201969 704.861633,65.687714 700.031311,70.781128 
	C695.713562,75.334084 695.972839,83.680534 699.427734,87.927422 
	C704.902832,94.657593 710.790039,96.769775 717.676270,92.946098 
	C723.236450,89.858757 728.208740,85.553062 732.995789,81.287292 
	C736.385681,78.266495 734.954285,75.062675 731.290039,72.168587 
	C727.747437,74.962936 724.161316,77.791626 720.244202,80.881340 
	C718.331055,78.738113 716.520630,76.709946 714.470398,74.413116 
	C721.210083,68.684982 727.481262,63.355076 734.325623,57.537983 
	C739.128784,63.171265 743.783447,68.493584 748.210632,73.998817 
	C748.754028,74.674507 748.505310,76.625496 747.905884,77.484917 
	C740.482727,88.128059 731.576599,97.355202 719.525635,102.556564 
	C703.951599,109.278519 690.606201,102.412155 686.010803,85.565323 
z"/>
<path fill="#E2E2E2" opacity="1.000000" stroke="none" 
	d="
M688.985962,115.401093 
	C689.608521,128.439362 681.993103,136.532761 673.238708,143.751556 
	C669.830322,146.562088 665.725586,148.626144 661.726562,150.602432 
	C652.876465,154.976212 643.037659,153.255844 635.937683,146.405258 
	C629.012573,139.723251 626.763245,128.827805 630.932251,120.248489 
	C636.578064,108.630028 645.934631,100.693390 657.837524,96.359520 
	C671.845276,91.259293 684.603882,99.259888 688.985962,115.401093 
M678.013733,121.335312 
	C677.890320,112.372437 669.950073,103.877167 662.716736,105.284721 
	C652.813171,107.211876 645.467529,112.798141 641.071228,121.903336 
	C637.458496,129.385849 642.614807,139.240738 650.449097,142.070114 
	C659.453003,145.321915 677.199646,132.759827 678.013733,121.335312 
z"/>
<path fill="#01BDEC" opacity="1.000000" stroke="none" 
	d="
M413.001221,319.999725 
	C413.001221,291.922546 413.001221,263.845398 413.001221,235.400299 
	C419.199799,235.400299 425.410370,235.400299 432.216461,235.400299 
	C432.216461,250.979996 432.216461,266.533417 431.778625,282.583130 
	C430.899780,283.719971 430.458740,284.360474 430.010681,285.002930 
	C430.003662,285.004883 429.995422,285.016907 429.629395,285.012573 
	C428.187286,286.028900 427.111176,287.049530 425.893829,288.340698 
	C424.849121,289.413483 423.945618,290.215759 422.735413,291.045837 
	C422.101990,291.485840 421.775330,291.898041 421.448639,292.310211 
	C421.983795,292.532074 422.518951,292.753906 423.312378,293.101868 
	C424.052063,293.807831 424.533508,294.387695 425.010986,295.337219 
	C426.025146,296.794891 427.043274,297.882965 428.318390,299.098602 
	C429.055450,299.806000 429.535553,300.385803 430.011414,301.316345 
	C430.635162,302.445801 431.263214,303.224548 431.965820,304.371826 
	C432.019104,305.489746 431.997833,306.239044 431.723816,307.098724 
	C430.990570,307.477142 430.510101,307.745209 429.668549,308.011047 
	C428.549561,308.695648 427.791626,309.382477 426.892700,310.340698 
	C425.844482,311.412506 424.937164,312.212952 423.660339,313.010010 
	C422.204407,314.026031 421.117950,315.045410 419.890289,316.336365 
	C418.840942,317.408783 417.932800,318.209595 416.671448,319.006226 
	C415.212585,319.334595 414.106903,319.667175 413.001221,319.999725 
z"/>
<path fill="#E2E2E2" opacity="1.000000" stroke="none" 
	d="
M215.181686,517.237488 
	C218.257339,514.225220 221.369202,511.676575 223.714386,508.552399 
	C224.762466,507.156158 224.271011,504.604218 224.478241,502.576752 
	C222.499237,502.382812 220.191467,501.432709 218.598022,502.125549 
	C211.611740,505.163086 204.971268,509.020996 197.916794,511.865692 
	C194.581375,513.210632 190.265472,514.117188 186.970108,513.184998 
	C178.011185,510.650879 175.893463,500.304565 183.203918,492.648590 
	C188.969604,486.610321 195.778030,481.345245 202.811584,476.802368 
	C209.922394,472.209534 210.293274,472.783752 215.887451,480.054199 
	C212.276688,481.695007 208.431564,482.850708 205.276321,485.013062 
	C200.391251,488.360870 195.812759,492.219727 191.479141,496.263611 
	C190.399673,497.270935 190.755569,499.816406 190.451736,501.654907 
	C192.094147,501.780396 193.994293,502.504364 195.334122,501.927307 
	C200.974915,499.497864 206.348160,496.438232 212.017563,494.087311 
	C215.943237,492.459503 220.123398,491.069580 224.312668,490.533783 
	C232.295807,489.512787 238.417572,499.028107 235.089661,506.819946 
	C230.446396,517.691467 221.141525,523.797119 211.630142,529.678833 
	C210.925201,530.114685 210.154892,530.445496 209.412094,530.819458 
	C201.850433,534.626038 201.850250,534.625671 197.412872,527.347168 
	C203.244110,524.053528 209.074875,520.760132 215.181686,517.237488 
z"/>
<path fill="#E2E2E2" opacity="1.000000" stroke="none" 
	d="
M540.990967,190.348328 
	C541.032776,190.002533 541.458008,189.777191 542.025330,189.828400 
	C543.063293,189.843079 543.533936,189.806564 544.460510,189.819214 
	C548.285828,189.949310 551.655273,190.030228 554.859436,190.399216 
	C550.919189,194.588013 546.651001,198.130707 543.493591,202.479843 
	C539.518188,207.955719 540.202332,214.818848 544.133545,219.590149 
	C548.274353,224.615799 554.305725,226.495407 560.695862,224.160767 
	C569.041138,221.111771 575.387695,215.537888 580.103699,207.642593 
	C578.306152,205.932312 576.693176,204.397598 575.091858,202.873993 
	C572.194336,205.228241 569.585632,207.032028 567.370300,209.231949 
	C564.887756,211.697205 563.079590,211.167587 561.354065,208.578201 
	C560.545349,207.364670 559.831909,206.087677 558.929993,204.599579 
	C560.075989,203.634003 561.097107,202.833389 562.051208,201.959595 
	C566.388672,197.987183 570.707214,193.994141 575.244385,189.892914 
	C575.456177,189.777283 575.914062,189.625153 576.313599,189.756195 
	C577.830933,189.976562 578.948853,190.065903 580.066711,190.155243 
	C583.795837,194.589539 587.659424,198.921799 591.157349,203.531555 
	C592.007385,204.651749 592.442627,207.310501 591.734253,208.204315 
	C582.300598,220.107666 572.549194,231.628479 556.648438,235.298401 
	C548.619446,237.151550 542.028503,234.331146 536.761719,228.983200 
	C531.052307,223.185883 527.700256,215.681870 530.913025,207.609619 
	C533.307739,201.592758 537.536987,196.306015 540.990967,190.348328 
z"/>
<path fill="#0ABFEC" opacity="1.000000" stroke="none" 
	d="
M524.012695,234.193710 
	C540.377808,233.202332 559.188232,246.654282 566.034973,264.245270 
	C575.332703,288.133484 565.284973,314.767822 542.612549,326.333344 
	C519.703552,338.019501 492.516449,330.095398 478.031525,307.065796 
	C477.833496,306.563690 477.804138,306.102905 478.104065,305.963196 
	C479.596405,304.887604 480.788818,303.951691 482.236542,303.230011 
	C483.223145,304.554382 483.906769,305.699554 484.692871,306.769501 
	C495.667084,321.706635 510.390564,328.346497 528.617188,324.814392 
	C546.602539,321.329041 558.017029,309.939392 562.516602,292.176178 
	C567.427917,272.787506 556.312988,254.424194 537.785645,250.867233 
	C537.059021,250.505508 536.564331,250.286118 536.018433,249.721939 
	C534.615662,247.331528 533.264160,245.285904 532.291077,243.173004 
	C533.831665,243.003510 534.993835,242.901291 536.155945,242.799072 
	C536.182556,242.566727 536.209167,242.334366 536.235779,242.102005 
	C533.475464,241.318695 530.715149,240.535385 527.811584,239.576050 
	C527.420959,239.195419 527.137329,239.106323 526.796631,239.219055 
	C526.775940,239.305344 526.620300,239.390762 526.635498,239.058685 
	C525.771423,237.215652 524.892029,235.704681 524.012695,234.193710 
z"/>
<path fill="#E2E2E2" opacity="1.000000" stroke="none" 
	d="
M308.901184,385.825928 
	C312.699249,385.445465 316.433258,385.384888 320.902008,385.573730 
	C322.771057,385.913208 323.905334,386.003296 325.039642,386.093384 
	C335.101837,390.371277 345.167572,394.640961 355.223724,398.933014 
	C357.653351,399.969971 360.051361,401.080872 363.112335,402.447205 
	C360.044647,405.049561 357.670166,407.715851 354.714020,409.289429 
	C353.290588,410.047150 350.585510,409.135864 348.789398,408.285980 
	C345.918976,406.927765 343.787842,406.729431 341.174408,409.107361 
	C335.906555,413.900513 330.172943,418.179718 324.851044,422.917572 
	C323.961731,423.709320 323.621185,425.901917 323.982849,427.175903 
	C325.396790,432.156952 325.084686,436.210632 319.823669,438.787323 
	C318.445068,439.462524 317.411499,440.842255 315.551880,442.489990 
	C313.249023,432.012177 311.136108,422.377899 309.012573,412.745941 
	C308.050018,408.380035 307.317444,403.942932 306.027954,399.674896 
	C304.474243,394.532318 304.432861,389.940094 308.901184,385.825928 
M317.872620,394.961273 
	C317.274719,395.208466 316.132690,395.580139 316.156677,395.685028 
	C317.604340,402.010376 319.147797,408.313782 320.925507,415.618927 
	C326.311737,411.064209 330.764740,407.298615 336.079315,402.804504 
	C329.417389,399.926483 323.978607,397.576843 317.872620,394.961273 
z"/>
<path fill="#E2E2E2" opacity="1.000000" stroke="none" 
	d="
M360.013519,374.965393 
	C357.296692,375.023132 354.579834,375.080902 351.417236,375.046936 
	C340.067841,366.925629 343.269196,359.195648 351.602203,350.326477 
	C356.387299,345.233490 362.757599,341.488098 368.795135,337.751434 
	C375.520081,333.589233 376.428711,334.139282 379.996643,341.071014 
	C374.032806,344.698303 368.070465,348.238007 362.212494,351.942780 
	C360.551300,352.993378 358.731812,354.265869 357.814331,355.901794 
	C356.639465,357.996613 356.303467,360.561920 355.605988,362.924500 
	C357.920898,362.863434 360.508118,363.454224 362.500854,362.621887 
	C369.091553,359.868835 375.366669,356.360687 381.956116,353.604187 
	C387.922028,351.108551 394.053894,350.307678 398.718475,356.295166 
	C402.970764,361.753448 401.256653,367.221436 398.210602,372.556610 
	C397.880585,373.134644 397.589020,373.734619 397.141113,374.649109 
	C396.824310,375.047241 396.645935,375.120667 395.751343,375.178162 
	C391.692627,375.085114 388.350067,375.007965 385.167175,374.634918 
	C385.655945,373.963409 385.968597,373.571716 386.316833,373.214752 
	C388.816162,370.652740 391.855804,367.527130 389.042419,364.318695 
	C387.881653,362.994904 383.119232,363.845612 380.525482,364.951569 
	C373.535675,367.931854 366.831238,371.581451 360.013519,374.965393 
z"/>
<path fill="#D9E2E4" opacity="1.000000" stroke="none" 
	d="
M418.021881,330.116943 
	C413.780975,332.875336 413.205048,335.493896 417.437286,339.171173 
	C420.624817,341.940704 422.968018,345.681976 425.893921,349.242401 
	C424.747131,350.509949 423.904785,351.729858 422.796600,352.618103 
	C416.416779,357.731293 416.461029,356.225189 413.126587,351.932190 
	C406.024841,342.788849 398.407593,334.032379 390.731842,325.356018 
	C388.153290,322.441345 386.858673,320.507263 391.141266,318.162628 
	C392.939819,317.177948 394.310272,315.411316 396.070740,313.824005 
	C399.874268,318.298492 403.382416,322.425446 407.170074,326.881256 
	C408.853699,325.870880 410.356995,324.968719 412.283295,324.440857 
	C412.816406,326.380981 412.926483,327.946777 413.050720,329.713867 
	C414.874420,329.861725 416.448151,329.989319 418.021881,330.116943 
z"/>
<path fill="#E2E2E2" opacity="1.000000" stroke="none" 
	d="
M477.804138,306.102905 
	C477.804138,306.102905 477.833496,306.563690 477.816376,306.793762 
	C476.609833,307.507355 475.420410,307.990906 473.695007,308.692352 
	C464.215210,297.369476 454.659119,285.955475 444.800446,274.180023 
	C445.832886,272.971558 446.696289,271.828247 447.693237,270.816467 
	C452.592468,265.844299 453.391968,265.994263 457.615540,271.257355 
	C461.851807,276.536255 466.354492,281.601349 471.243408,287.089325 
	C471.878967,287.962585 472.011597,288.506683 472.086792,289.453918 
	C473.954285,295.272339 475.879211,300.687622 477.804138,306.102905 
z"/>
<path fill="#B9E2EC" opacity="1.000000" stroke="none" 
	d="
M590.927368,179.573441 
	C586.467102,173.885773 582.006836,168.198105 577.252869,162.135925 
	C579.866272,159.876236 582.467407,157.627090 585.664551,154.862640 
	C592.561035,163.037369 599.238037,170.951874 605.531860,179.305237 
	C600.770142,179.868011 596.391602,179.991898 591.728394,180.006561 
	C591.271667,179.789368 591.099548,179.681396 590.927368,179.573441 
z"/>
<path fill="#D9E2E4" opacity="1.000000" stroke="none" 
	d="
M431.976593,306.988373 
	C431.997833,306.239044 432.019104,305.489746 432.067017,304.054108 
	C432.071899,302.928070 432.050079,302.488373 432.117065,301.585815 
	C432.309021,296.404419 432.412140,291.685883 432.515228,286.967316 
	C435.023468,289.493225 437.681122,291.889496 440.008545,294.572266 
	C444.743317,300.029968 449.299835,305.642303 453.527710,311.605682 
	C448.778931,312.082581 444.432312,312.144714 439.796570,312.151825 
	C439.314148,312.129944 439.120789,312.163086 438.499207,312.142944 
	C436.220947,312.089661 434.370880,312.089661 432.569061,312.089661 
	C432.308167,309.843323 432.142395,308.415833 431.976593,306.988373 
z"/>
<path fill="#01BDEC" opacity="1.000000" stroke="none" 
	d="
M450.965759,329.856384 
	C441.965179,329.887299 432.964600,329.918213 423.516357,329.562927 
	C423.379089,328.093567 423.689514,327.010468 424.121094,325.670593 
	C424.817902,324.943390 425.393616,324.472900 426.336975,323.994965 
	C427.802917,322.966492 428.901184,321.945496 430.120667,320.667877 
	C430.817932,319.941681 431.393921,319.472076 432.337769,318.994385 
	C433.803436,317.962036 434.901245,316.937805 436.099304,315.710999 
	C436.386993,315.257416 436.631104,315.087891 437.306763,315.000244 
	C439.813995,316.000153 441.946259,316.999634 444.334534,318.120636 
	C445.059540,318.817352 445.528564,319.392578 446.005554,320.335663 
	C447.036835,321.802002 448.060181,322.900482 449.338959,324.120483 
	C450.062561,324.816284 450.530731,325.390564 451.002502,326.354950 
	C450.992645,327.782166 450.979187,328.819244 450.965759,329.856384 
z"/>
<path fill="#02A7D1" opacity="1.000000" stroke="none" 
	d="
M592.013000,180.115784 
	C596.391602,179.991898 600.770142,179.868011 605.600586,179.617065 
	C608.737427,179.554443 611.422302,179.618866 614.988525,179.713715 
	C619.602539,179.842514 623.335327,179.940903 627.068115,180.039307 
	C624.416565,182.732727 621.765015,185.426132 618.770508,188.511658 
	C617.949585,189.173477 617.471619,189.443176 616.993713,189.712860 
	C616.826660,189.771469 616.659668,189.830093 615.782837,189.903824 
	C610.372009,189.986023 605.670898,190.053085 600.969849,190.120163 
	C600.554871,190.019714 600.139832,189.919266 599.359619,189.443787 
	C598.329956,188.354416 597.665588,187.640076 596.904724,186.722946 
	C596.628113,186.264938 596.388000,186.093872 596.034790,185.710724 
	C595.653625,184.939636 595.325562,184.464767 594.867920,183.709137 
	C593.829895,182.324203 592.921448,181.219986 592.013000,180.115784 
z"/>
<path fill="#01BDEC" opacity="1.000000" stroke="none" 
	d="
M596.087891,186.006927 
	C596.388000,186.093872 596.628113,186.264938 596.905640,187.076813 
	C596.983154,188.336609 596.963196,189.039719 596.943237,189.742844 
	C591.953979,189.772476 586.964722,189.802094 581.467346,189.452637 
	C580.172241,188.150604 579.385193,187.227661 578.222900,185.864761 
	C577.228638,187.484085 576.571350,188.554626 575.914062,189.625153 
	C575.914062,189.625153 575.456177,189.777283 574.779175,189.834900 
	C569.753601,189.843536 565.405029,189.794571 561.049561,189.449249 
	C561.025269,188.757721 561.007812,188.362579 560.997559,187.983276 
	C561.004761,187.999115 560.970703,187.992554 561.273804,187.970337 
	C562.052246,187.622223 562.527710,187.296310 563.003052,186.987701 
	C563.002991,187.004990 562.970947,186.992172 563.274109,186.969635 
	C564.053223,186.621872 564.529236,186.296631 565.005127,185.988083 
	C565.005127,186.004776 564.971802,186.002167 565.196106,185.896957 
	C565.703979,185.596786 565.896057,185.334778 566.224976,184.999313 
	C566.453125,184.992920 566.909607,184.998230 567.313599,184.997162 
	C569.885498,184.584641 572.053467,184.173157 574.576111,183.694366 
	C573.562500,182.230942 572.761169,181.074020 571.959839,179.917114 
	C577.976074,179.846756 583.992310,179.776398 590.467957,179.639740 
	C591.099548,179.681396 591.271667,179.789368 591.728394,180.006546 
	C592.921448,181.219986 593.829895,182.324203 594.892944,184.015808 
	C595.394287,185.071121 595.741089,185.539017 596.087891,186.006927 
z"/>
<path fill="#02A7D1" opacity="1.000000" stroke="none" 
	d="
M431.969910,319.002441 
	C431.393921,319.472076 430.817932,319.941681 429.796021,320.731232 
	C428.223175,322.034943 427.096222,323.018677 425.969299,324.002441 
	C425.393616,324.472900 424.817902,324.943390 423.795776,325.734558 
	C421.893555,327.310760 420.437744,328.566193 418.981934,329.821625 
	C418.821899,329.870667 418.661865,329.919739 418.261841,330.042847 
	C416.448151,329.989319 414.874420,329.861725 413.050720,329.713867 
	C412.926483,327.946777 412.816406,326.380981 412.593933,324.387878 
	C412.591034,323.521912 412.700500,323.083221 413.221924,322.198181 
	C414.764160,320.838013 415.894409,319.924225 417.024658,319.010437 
	C417.932800,318.209595 418.840942,317.408783 420.215088,316.286377 
	C421.797333,314.981018 422.913635,313.997223 424.029877,313.013428 
	C424.937164,312.212952 425.844482,311.412506 427.209290,310.293213 
	C428.454376,309.320679 429.242004,308.666992 430.029602,308.013306 
	C430.510101,307.745209 430.990570,307.477142 431.723816,307.098724 
	C432.142395,308.415833 432.308167,309.843323 432.569061,312.089661 
	C434.370880,312.089661 436.220947,312.089661 438.368835,312.398560 
	C438.088348,313.471588 437.510040,314.235718 436.931763,314.999847 
	C436.631104,315.087891 436.386993,315.257416 435.774933,315.777405 
	C434.223541,317.031769 433.096710,318.017090 431.969910,319.002441 
z"/>
<path fill="#01BDEC" opacity="1.000000" stroke="none" 
	d="
M468.989990,329.854492 
	C464.313049,329.884857 459.636047,329.915192 454.478760,329.534698 
	C453.998779,328.396637 453.999146,327.669464 454.119354,326.683441 
	C454.816193,325.950562 455.393188,325.476501 456.337891,324.994354 
	C457.803345,323.964478 458.901184,322.942688 460.100311,321.716431 
	C460.391754,321.259216 460.638763,321.088898 461.246490,320.964966 
	C461.882874,320.523834 462.215424,320.118774 462.547974,319.713715 
	C462.026520,319.474854 461.505096,319.235992 460.993195,318.997345 
	C461.002747,318.997559 461.001404,319.016907 460.994690,318.655640 
	C460.005646,316.253387 459.023376,314.212402 458.041107,312.171417 
	C462.004089,312.171417 465.967102,312.171417 470.633301,312.171417 
	C470.633301,317.527954 470.633301,322.759125 470.312378,328.484558 
	C469.657623,329.270691 469.323822,329.562592 468.989990,329.854492 
z"/>
<path fill="#B9E2EC" opacity="1.000000" stroke="none" 
	d="
M627.420776,179.970337 
	C623.335327,179.940903 619.602539,179.842514 615.424683,179.612793 
	C620.159241,175.081253 625.289917,170.621109 630.549744,166.318893 
	C632.045166,165.095718 633.910706,163.586243 635.617249,163.572906 
	C637.240601,163.560196 639.338623,165.019058 640.308655,166.452896 
	C640.771790,167.137466 639.428650,169.588593 638.339600,170.673462 
	C635.427307,173.574783 632.210022,176.169998 629.137207,179.222015 
	C628.698120,179.671921 628.235718,179.786636 627.420776,179.970337 
z"/>
<path fill="#E2E2E2" opacity="1.000000" stroke="none" 
	d="
M508.943909,234.678497 
	C506.683563,231.858734 504.423218,229.038956 501.736237,225.686951 
	C504.379517,223.391235 506.926727,221.178955 510.333374,218.220245 
	C514.320862,223.257050 518.042114,227.957535 521.386719,232.991302 
	C517.314636,233.851349 513.619019,234.378113 509.678223,234.849823 
	C509.269958,234.756027 509.106934,234.717270 508.943909,234.678497 
z"/>
<path fill="#02A7D1" opacity="1.000000" stroke="none" 
	d="
M460.942627,321.001038 
	C460.638763,321.088898 460.391754,321.259216 459.776184,321.781860 
	C458.223877,323.035339 457.097046,324.018890 455.970215,325.002441 
	C455.393188,325.476501 454.816193,325.950562 453.796814,326.691162 
	C452.569244,326.626770 451.784058,326.295807 450.998901,325.964844 
	C450.530731,325.390564 450.062561,324.816284 449.273560,323.795959 
	C447.967712,322.222565 446.982635,321.095184 445.997559,319.967804 
	C445.528564,319.392578 445.059540,318.817352 444.267792,317.793640 
	C442.658600,315.632355 441.372131,313.919586 440.085663,312.206848 
	C444.432312,312.144714 448.778931,312.082581 453.588043,311.939636 
	C454.208557,311.912598 454.366577,311.966370 454.924927,312.381134 
	C457.217316,314.833710 459.109344,316.925293 461.001404,319.016907 
	C461.001404,319.016907 461.002747,318.997559 461.006165,319.331604 
	C460.987244,320.110748 460.964935,320.555908 460.942627,321.001038 
z"/>
<path fill="#02A7D1" opacity="1.000000" stroke="none" 
	d="
M566.909607,184.998230 
	C566.909607,184.998230 566.453125,184.992920 566.002991,185.107361 
	C565.266724,185.413101 565.073059,185.673218 564.971802,186.002167 
	C564.971802,186.002167 565.005127,186.004776 564.703735,186.014923 
	C563.925232,186.347443 563.448120,186.669815 562.970947,186.992188 
	C562.970947,186.992172 563.002991,187.004990 562.701172,187.011719 
	C561.923096,187.343155 561.446899,187.667847 560.970703,187.992554 
	C560.970703,187.992554 561.004761,187.999115 560.678955,188.014557 
	C559.232117,188.586212 558.111084,189.142441 556.664307,189.778259 
	C555.900574,189.942276 555.462585,190.026718 555.024658,190.111145 
	C551.655273,190.030228 548.285828,189.949310 544.488892,189.521133 
	C544.382324,188.448425 544.703308,187.722977 545.024231,186.997528 
	C546.231750,186.172272 547.439270,185.347015 549.044434,184.149612 
	C549.643799,183.515976 549.845642,183.254501 550.047485,182.993042 
	C550.350342,182.909729 550.598694,182.744431 551.227783,182.232117 
	C552.773926,181.279495 553.884705,180.591858 554.995544,179.904221 
	C555.434265,179.818954 555.872986,179.733688 557.081543,179.694580 
	C561.622986,179.631989 565.394592,179.523239 569.166138,179.414490 
	C569.569885,179.533386 569.973694,179.652283 570.712036,180.184082 
	C572.469849,184.698090 567.868042,183.135818 566.909607,184.998230 
z"/>
<path fill="#E2E2E2" opacity="1.000000" stroke="none" 
	d="
M474.168732,265.105469 
	C471.442200,262.130402 468.715698,259.155365 465.824066,256.000153 
	C471.025818,250.412430 475.708954,244.836868 484.526733,248.335144 
	C481.509399,254.087265 478.211487,259.507812 474.730225,264.984619 
	C474.546844,265.040924 474.168732,265.105469 474.168732,265.105469 
z"/>
<path fill="#0ABFEC" opacity="1.000000" stroke="none" 
	d="
M508.580261,234.820740 
	C509.106934,234.717270 509.269958,234.756027 509.820374,235.144775 
	C511.144165,236.902756 512.080505,238.310745 512.640381,239.830032 
	C506.077454,242.924377 499.891083,245.907425 493.484070,248.904999 
	C492.998810,249.059235 492.717010,249.135925 492.008301,249.078934 
	C489.708252,248.654068 487.817963,248.299835 485.927673,247.945618 
	C491.891479,241.101471 499.642548,237.325760 508.580261,234.820740 
z"/>
<path fill="#0ABFEC" opacity="1.000000" stroke="none" 
	d="
M474.146759,265.492188 
	C474.168732,265.105469 474.546844,265.040924 474.792358,265.339966 
	C476.043365,267.771881 477.048798,269.904755 478.084930,272.471375 
	C478.384705,280.607849 478.653809,288.310547 478.630676,295.861023 
	C476.273682,293.489502 474.208954,291.270111 472.144226,289.050751 
	C472.011597,288.506683 471.878967,287.962585 471.583588,287.193298 
	C472.322144,279.938385 473.223480,272.908630 474.146759,265.492188 
z"/>
<path fill="#02A7D1" opacity="1.000000" stroke="none" 
	d="
M478.054260,272.037598 
	C477.048798,269.904755 476.043365,267.771881 474.975739,265.283691 
	C478.211487,259.507812 481.509399,254.087265 484.947144,248.360138 
	C485.087006,248.053558 485.505432,247.986908 485.716553,247.966263 
	C487.817963,248.299835 489.708252,248.654068 491.828186,249.375778 
	C489.720612,252.492325 487.383362,255.241394 484.789368,258.147705 
	C484.320251,258.850555 484.107910,259.396179 483.609222,260.139252 
	C481.784515,264.141602 480.246124,267.946533 478.544067,271.822357 
	C478.380432,271.893280 478.054260,272.037598 478.054260,272.037598 
z"/>
<path fill="#A4E4F3" opacity="1.000000" stroke="none" 
	d="
M365.807861,385.684814 
	C367.265869,385.240417 368.704712,385.110077 371.033997,385.013916 
	C375.966217,385.203125 380.007965,385.358185 384.049744,385.513245 
	C379.064026,388.571136 374.292419,392.152466 368.949738,394.337585 
	C367.523254,394.921051 364.350281,391.234436 361.510651,389.167145 
	C363.584869,387.630981 364.686768,386.814941 365.807861,385.684814 
z"/>
<path fill="#02A7D1" opacity="1.000000" stroke="none" 
	d="
M384.420776,385.463196 
	C380.007965,385.358185 375.966217,385.203125 371.466553,384.961853 
	C375.210999,381.874329 379.413361,378.873047 384.059052,375.502625 
	C384.670746,375.065918 384.839142,374.998352 385.007507,374.930786 
	C388.350067,375.007965 391.692627,375.085114 395.476379,375.268188 
	C393.038300,378.374664 390.158997,381.375275 387.130737,384.672211 
	C386.251770,385.116760 385.521759,385.264923 384.420776,385.463196 
z"/>
<path fill="#02A7D1" opacity="1.000000" stroke="none" 
	d="
M432.465271,286.627869 
	C432.412140,291.685883 432.309021,296.404419 431.855377,301.468628 
	C431.008423,301.531372 430.512054,301.248474 430.015656,300.965607 
	C429.535553,300.385803 429.055450,299.806000 428.268768,298.773682 
	C426.979736,297.203308 425.997345,296.085449 425.014923,294.967590 
	C424.533508,294.387695 424.052063,293.807831 423.296997,292.775879 
	C423.029633,291.888550 423.035889,291.453278 423.042114,291.018005 
	C423.945618,290.215759 424.849121,289.413483 426.217773,288.289734 
	C427.787140,286.984467 428.891296,286.000702 429.995422,285.016907 
	C429.995422,285.016907 430.003662,285.004883 430.348267,285.001221 
	C431.143341,284.989197 431.593811,284.980804 432.044250,284.972412 
	C432.167938,285.411072 432.291595,285.849731 432.465271,286.627869 
z"/>
<path fill="#02A7D1" opacity="1.000000" stroke="none" 
	d="
M513.016907,239.718719 
	C512.080505,238.310745 511.144165,236.902756 510.065613,235.199829 
	C513.619019,234.378113 517.314636,233.851349 521.425232,233.345596 
	C522.371765,233.586395 522.903198,233.806198 523.723694,234.109863 
	C524.892029,235.704681 525.771423,237.215652 526.208496,239.070389 
	C521.840210,239.620514 517.914124,239.826859 513.745239,239.954865 
	C513.340576,239.823929 513.178711,239.771332 513.016907,239.718719 
z"/>
<path fill="#E2E2E2" opacity="1.000000" stroke="none" 
	d="
M601.119751,190.419693 
	C605.670898,190.053085 610.372009,189.986023 615.533203,189.994293 
	C614.889038,191.010651 613.800720,191.971191 612.677856,192.889450 
	C606.329773,198.080688 605.785278,197.974045 601.119751,190.419693 
z"/>
<path fill="#B9E2EC" opacity="1.000000" stroke="none" 
	d="
M569.047607,179.107422 
	C565.394592,179.523239 561.622986,179.631989 557.403870,179.601868 
	C560.860779,177.679825 564.613586,173.156677 569.047607,179.107422 
z"/>
<path fill="#30C7ED" opacity="1.000000" stroke="none" 
	d="
M460.994690,318.655640 
	C459.109344,316.925293 457.217316,314.833710 455.160858,312.465027 
	C455.760406,312.129486 456.524384,312.071045 457.664734,312.092041 
	C459.023376,314.212402 460.005646,316.253387 460.994690,318.655640 
z"/>
<path fill="#30C7ED" opacity="1.000000" stroke="none" 
	d="
M567.313599,184.997162 
	C567.868042,183.135818 572.469849,184.698090 571.015259,180.274246 
	C571.144653,179.893524 571.305542,179.835571 571.713135,179.847366 
	C572.761169,181.074020 573.562500,182.230942 574.576111,183.694366 
	C572.053467,184.173157 569.885498,184.584641 567.313599,184.997162 
z"/>
<path fill="#30C7ED" opacity="1.000000" stroke="none" 
	d="
M576.313599,189.756195 
	C576.571350,188.554626 577.228638,187.484085 578.222900,185.864761 
	C579.385193,187.227661 580.172241,188.150604 581.010315,189.377777 
	C580.898926,189.768280 580.736572,189.854553 580.320435,190.048019 
	C578.948853,190.065903 577.830933,189.976562 576.313599,189.756195 
z"/>
<path fill="#A4E4F3" opacity="1.000000" stroke="none" 
	d="
M325.470276,386.065460 
	C323.905334,386.003296 322.771057,385.913208 321.364929,385.634644 
	C325.115479,385.341919 329.137817,385.237671 333.609070,385.272186 
	C331.338959,385.619843 328.619934,385.828674 325.470276,386.065460 
z"/>
<path fill="#30C7ED" opacity="1.000000" stroke="none" 
	d="
M419.383087,329.898499 
	C420.437744,328.566193 421.893555,327.310760 423.674622,325.991333 
	C423.689514,327.010468 423.379089,328.093567 423.052124,329.515625 
	C421.951813,329.894836 420.868011,329.935089 419.383087,329.898499 
z"/>
<path fill="#30C7ED" opacity="1.000000" stroke="none" 
	d="
M451.002502,326.354980 
	C451.784058,326.295807 452.569244,326.626770 453.676971,326.950012 
	C453.999146,327.669464 453.998779,328.396637 454.017242,329.485901 
	C453.265747,329.904907 452.495453,329.961853 451.345459,329.937561 
	C450.979187,328.819244 450.992645,327.782166 451.002502,326.354980 
z"/>
<path fill="#0ABFEC" opacity="1.000000" stroke="none" 
	d="
M416.671448,319.006226 
	C415.894409,319.924225 414.764160,320.838013 413.341370,321.880676 
	C412.977905,321.561432 412.906982,321.113342 412.918640,320.332489 
	C414.106903,319.667175 415.212585,319.334595 416.671448,319.006226 
z"/>
<path fill="#30C7ED" opacity="1.000000" stroke="none" 
	d="
M554.634216,179.805557 
	C553.884705,180.591858 552.773926,181.279495 551.329407,182.029388 
	C551.274048,181.547928 551.552429,181.004211 551.942749,180.176270 
	C552.794128,179.830338 553.533508,179.768616 554.634216,179.805557 
z"/>
<path fill="#30C7ED" opacity="1.000000" stroke="none" 
	d="
M597.302368,189.828461 
	C596.963196,189.039719 596.983154,188.336609 597.002136,187.279602 
	C597.665588,187.640076 598.329956,188.354416 599.049316,189.362915 
	C598.623413,189.742752 598.142456,189.828415 597.302368,189.828461 
z"/>
<path fill="#0ABFEC" opacity="1.000000" stroke="none" 
	d="
M432.122192,284.644775 
	C431.593811,284.980804 431.143341,284.989197 430.355286,284.999268 
	C430.458740,284.360474 430.899780,283.719971 431.660522,283.039459 
	C432.053558,283.438690 432.126862,283.877930 432.122192,284.644775 
z"/>
<path fill="#30C7ED" opacity="1.000000" stroke="none" 
	d="
M469.272583,329.914490 
	C469.323822,329.562592 469.657623,329.270691 470.212189,328.933411 
	C470.140381,329.250153 469.847778,329.612335 469.272583,329.914490 
z"/>
<path fill="#30C7ED" opacity="1.000000" stroke="none" 
	d="
M617.334412,189.796921 
	C617.471619,189.443176 617.949585,189.173477 618.703369,188.832001 
	C618.979248,188.760239 619.043274,189.233307 619.050659,189.471878 
	C618.597107,189.767288 618.136108,189.824127 617.334412,189.796921 
z"/>
<path fill="#FFFFFF" opacity="1.000000" stroke="none" 
	d="
M782.550964,15.305769 
	C790.658203,22.882582 791.414368,29.025738 785.031677,37.798676 
	C780.173035,44.476860 773.488647,49.337185 765.209717,49.612804 
	C754.251831,49.977612 746.755005,35.776169 753.198792,26.689671 
	C756.790527,21.624985 762.177673,17.540617 767.438171,14.039932 
	C772.107666,10.932549 777.546692,11.329345 782.550964,15.305769 
z"/>
<path fill="#FDFEFF" opacity="1.000000" stroke="none" 
	d="
M144.152237,540.801392 
	C146.707672,526.999146 152.949951,520.881531 163.886322,520.999817 
	C172.935974,521.097778 181.146240,528.086670 182.000336,536.366150 
	C183.396927,549.904480 176.241974,556.750854 166.527771,558.821655 
	C157.426117,560.761841 147.922897,554.516174 145.323868,545.528503 
	C144.910461,544.098877 144.582352,542.644592 144.152237,540.801392 
M171.942795,545.528137 
	C168.917191,549.224365 164.648834,550.243530 160.734558,548.494507 
	C157.040329,546.843872 153.696167,543.614685 154.070786,538.832642 
	C154.611282,531.933411 159.760239,529.482422 165.869766,527.515137 
	C164.230698,526.447693 162.460022,525.573059 161.085358,525.993347 
	C158.614258,526.748901 156.088837,527.928040 154.108856,529.563171 
	C149.993896,532.961487 148.734131,539.665039 150.809265,544.601685 
	C153.255188,550.420349 158.761963,554.283020 164.194504,553.990479 
	C168.726654,553.746460 176.360458,548.035217 177.360535,543.789246 
	C177.600006,542.772583 176.542816,541.450562 175.720856,539.342957 
	C174.222595,541.895935 173.320023,543.433838 171.942795,545.528137 
z"/>
<path fill="#FDFEFF" opacity="1.000000" stroke="none" 
	d="
M174.053909,256.923737 
	C185.946838,249.953125 198.713623,250.976364 208.150818,259.458160 
	C218.006012,268.315674 221.072723,282.814850 215.702423,295.161377 
	C210.830292,306.362579 199.280716,313.566620 187.872726,312.520081 
	C174.275009,311.272705 164.071594,302.607666 161.476807,289.198761 
	C158.955078,276.167236 162.777542,265.175201 174.053909,256.923737 
z"/>
<path fill="#30C7ED" opacity="1.000000" stroke="none" 
	d="
M544.701660,187.027496 
	C544.703308,187.722977 544.382324,188.448425 544.032959,189.471954 
	C543.533936,189.806564 543.063293,189.843079 542.255432,189.757996 
	C542.738525,188.776764 543.558777,187.917099 544.701660,187.027496 
z"/>
<path fill="#30C7ED" opacity="1.000000" stroke="none" 
	d="
M549.817078,183.097992 
	C549.845642,183.254501 549.643799,183.515976 549.219788,183.891846 
	C549.193970,183.738480 549.390320,183.470703 549.817078,183.097992 
z"/>
<path fill="#FFFFFF" opacity="1.000000" stroke="none" 
	d="
M385.167175,374.634888 
	C384.839142,374.998352 384.670746,375.065918 384.256409,375.250122 
	C376.320160,375.281250 368.629852,375.195740 360.476562,375.037811 
	C366.831238,371.581451 373.535675,367.931854 380.525482,364.951569 
	C383.119232,363.845612 387.881653,362.994904 389.042419,364.318695 
	C391.855804,367.527130 388.816162,370.652740 386.316833,373.214752 
	C385.968597,373.571716 385.655945,373.963409 385.167175,374.634888 
z"/>
<path fill="#FFFFFF" opacity="1.000000" stroke="none" 
	d="
M678.008240,121.755295 
	C677.199646,132.759827 659.453003,145.321915 650.449097,142.070114 
	C642.614807,139.240738 637.458496,129.385849 641.071228,121.903336 
	C645.467529,112.798141 652.813171,107.211876 662.716736,105.284721 
	C669.950073,103.877167 677.890320,112.372437 678.008240,121.755295 
z"/>
<path fill="#0ABFEC" opacity="1.000000" stroke="none" 
	d="
M425.010986,295.337219 
	C425.997345,296.085449 426.979736,297.203308 428.011780,298.646088 
	C427.043274,297.882965 426.025146,296.794891 425.010986,295.337219 
z"/>
<path fill="#0ABFEC" opacity="1.000000" stroke="none" 
	d="
M423.660400,313.010071 
	C422.913635,313.997223 421.797333,314.981018 420.356262,316.014771 
	C421.117950,315.045410 422.204407,314.026031 423.660400,313.010071 
z"/>
<path fill="#0ABFEC" opacity="1.000000" stroke="none" 
	d="
M429.629395,285.012573 
	C428.891296,286.000702 427.787140,286.984467 426.359009,288.019196 
	C427.111176,287.049530 428.187286,286.028900 429.629395,285.012573 
z"/>
<path fill="#0ABFEC" opacity="1.000000" stroke="none" 
	d="
M430.011414,301.316345 
	C430.512054,301.248474 431.008423,301.531372 431.766541,301.931458 
	C432.050079,302.488373 432.071899,302.928070 431.992493,303.685547 
	C431.263214,303.224548 430.635162,302.445801 430.011414,301.316345 
z"/>
<path fill="#0ABFEC" opacity="1.000000" stroke="none" 
	d="
M429.668549,308.011047 
	C429.242004,308.666992 428.454376,309.320679 427.350220,310.021820 
	C427.791626,309.382477 428.549561,308.695648 429.668549,308.011047 
z"/>
<path fill="#0ABFEC" opacity="1.000000" stroke="none" 
	d="
M422.735413,291.045837 
	C423.035889,291.453278 423.029633,291.888550 423.038757,292.649780 
	C422.518951,292.753906 421.983795,292.532074 421.448639,292.310211 
	C421.775330,291.898041 422.101990,291.485840 422.735413,291.045837 
z"/>
<path fill="#FFFFFF" opacity="1.000000" stroke="none" 
	d="
M554.859436,190.399216 
	C555.462585,190.026718 555.900574,189.942276 557.064392,189.872437 
	C558.878967,189.839874 559.967712,189.792740 561.056396,189.745605 
	C565.405029,189.794571 569.753601,189.843536 574.567444,189.950531 
	C570.707214,193.994141 566.388672,197.987183 562.051208,201.959595 
	C561.097107,202.833389 560.075989,203.634003 558.929993,204.599579 
	C559.831909,206.087677 560.545349,207.364670 561.354065,208.578201 
	C563.079590,211.167587 564.887756,211.697205 567.370300,209.231949 
	C569.585632,207.032028 572.194336,205.228241 575.091858,202.873993 
	C576.693176,204.397598 578.306152,205.932312 580.103699,207.642593 
	C575.387695,215.537888 569.041138,221.111771 560.695862,224.160767 
	C554.305725,226.495407 548.274353,224.615799 544.133545,219.590149 
	C540.202332,214.818848 539.518188,207.955719 543.493591,202.479843 
	C546.651001,198.130707 550.919189,194.588013 554.859436,190.399216 
z"/>
<path fill="#FAFEFE" opacity="1.000000" stroke="none" 
	d="
M478.084930,272.471375 
	C478.054260,272.037598 478.380432,271.893280 478.864624,271.998352 
	C483.468567,276.752502 487.588348,281.401581 491.822754,286.299438 
	C492.015961,286.713104 492.094513,286.878021 492.151855,287.348572 
	C492.348389,287.980896 492.566132,288.307648 492.754639,288.703369 
	C492.725433,288.772369 492.746857,288.920654 492.734985,289.319550 
	C496.283051,304.115356 509.575806,312.922791 524.823608,310.987335 
	C536.931030,309.450531 547.592712,298.662659 548.991882,286.533051 
	C550.409119,274.246826 545.029175,265.864227 532.955627,260.991394 
	C535.275452,258.440948 537.449402,256.218567 539.754333,253.862274 
	C539.189514,252.934402 538.603577,251.971985 538.017700,251.009583 
	C556.312988,254.424194 567.427917,272.787506 562.516602,292.176178 
	C558.017029,309.939392 546.602539,321.329041 528.617188,324.814392 
	C510.390564,328.346497 495.667084,321.706635 484.692871,306.769501 
	C483.906769,305.699554 483.223145,304.554382 482.237244,302.875183 
	C480.962708,300.208527 479.942780,298.110870 478.922882,296.013214 
	C478.653809,288.310547 478.384705,280.607849 478.084930,272.471375 
z"/>
<path fill="#D9E2E4" opacity="1.000000" stroke="none" 
	d="
M537.785645,250.867218 
	C538.603577,251.971985 539.189514,252.934402 539.754333,253.862274 
	C537.449402,256.218567 535.275452,258.440948 532.519165,260.962219 
	C528.269226,261.456787 524.601685,261.652466 520.640076,261.584137 
	C516.267456,260.892670 512.188904,260.465179 508.262939,259.744690 
	C512.263977,256.909119 516.112427,254.366486 520.258301,251.831207 
	C521.045959,251.524643 521.536194,251.210739 522.446777,250.937347 
	C527.268005,250.674164 531.668884,250.370453 536.069702,250.066727 
	C536.564331,250.286118 537.059021,250.505508 537.785645,250.867218 
z"/>
<path fill="#02A7D1" opacity="1.000000" stroke="none" 
	d="
M536.018433,249.721939 
	C531.668884,250.370453 527.268005,250.674164 522.406921,250.615692 
	C520.666138,248.612045 519.385620,246.970551 518.457520,245.145142 
	C523.177490,244.387589 527.545044,243.813934 531.912598,243.240295 
	C533.264160,245.285904 534.615662,247.331528 536.018433,249.721939 
z"/>
<path fill="#D9E2E4" opacity="1.000000" stroke="none" 
	d="
M532.291077,243.173004 
	C527.545044,243.813934 523.177490,244.387589 518.186462,245.118896 
	C517.391541,245.217026 517.220154,245.157501 516.934082,244.786255 
	C515.875671,242.994095 514.931824,241.513657 513.988037,240.033218 
	C517.914124,239.826859 521.840210,239.620514 526.193298,239.402466 
	C526.620300,239.390762 526.775940,239.305344 526.864929,239.469208 
	C527.287537,239.672729 527.621216,239.712402 527.954834,239.752075 
	C530.715149,240.535385 533.475464,241.318695 536.235779,242.102005 
	C536.209167,242.334366 536.182556,242.566727 536.155945,242.799072 
	C534.993835,242.901291 533.831665,243.003510 532.291077,243.173004 
z"/>
<path fill="#02A7D1" opacity="1.000000" stroke="none" 
	d="
M478.630615,295.861023 
	C479.942780,298.110870 480.962708,300.208527 481.981934,302.661011 
	C480.788818,303.951691 479.596405,304.887604 478.104095,305.963196 
	C475.879211,300.687622 473.954285,295.272339 472.086792,289.453918 
	C474.208954,291.270111 476.273682,293.489502 478.630615,295.861023 
z"/>
<path fill="#02A7D1" opacity="1.000000" stroke="none" 
	d="
M527.811584,239.576050 
	C527.621216,239.712402 527.287537,239.672729 526.885620,239.382904 
	C527.137329,239.106323 527.420959,239.195419 527.811584,239.576050 
z"/>
<path fill="#FDFEFF" opacity="1.000000" stroke="none" 
	d="
M318.206207,395.094238 
	C323.978607,397.576843 329.417389,399.926483 336.079315,402.804504 
	C330.764740,407.298615 326.311737,411.064209 320.925507,415.618927 
	C319.147797,408.313782 317.604340,402.010376 316.156677,395.685028 
	C316.132690,395.580139 317.274719,395.208466 318.206207,395.094238 
z"/>
<path fill="#30C7ED" opacity="1.000000" stroke="none" 
	d="
M439.796570,312.151794 
	C441.372131,313.919586 442.658600,315.632355 444.011780,317.672119 
	C441.946259,316.999634 439.813995,316.000153 437.306763,315.000244 
	C437.510040,314.235718 438.088348,313.471588 438.797058,312.451843 
	C439.120789,312.163086 439.314148,312.129944 439.796570,312.151794 
z"/>
<path fill="#30C7ED" opacity="1.000000" stroke="none" 
	d="
M426.336975,323.994965 
	C427.096222,323.018677 428.223175,322.034943 429.674774,320.987823 
	C428.901184,321.945496 427.802917,322.966492 426.336975,323.994965 
z"/>
<path fill="#30C7ED" opacity="1.000000" stroke="none" 
	d="
M446.005554,320.335663 
	C446.982635,321.095184 447.967712,322.222565 449.018127,323.674438 
	C448.060181,322.900482 447.036835,321.802002 446.005554,320.335663 
z"/>
<path fill="#30C7ED" opacity="1.000000" stroke="none" 
	d="
M432.337769,318.994324 
	C433.096710,318.017090 434.223541,317.031769 435.674744,315.980042 
	C434.901245,316.937805 433.803436,317.962036 432.337769,318.994324 
z"/>
<path fill="#30C7ED" opacity="1.000000" stroke="none" 
	d="
M596.034790,185.710724 
	C595.741089,185.539017 595.394287,185.071121 595.022522,184.296555 
	C595.325562,184.464767 595.653625,184.939636 596.034790,185.710724 
z"/>
<path fill="#30C7ED" opacity="1.000000" stroke="none" 
	d="
M561.049561,189.449249 
	C559.967712,189.792740 558.878967,189.839874 557.390137,189.792847 
	C558.111084,189.142441 559.232117,188.586212 560.671753,187.998703 
	C561.007812,188.362579 561.025269,188.757721 561.049561,189.449249 
z"/>
<path fill="#30C7ED" opacity="1.000000" stroke="none" 
	d="
M563.274109,186.969650 
	C563.448120,186.669815 563.925232,186.347443 564.703735,185.998230 
	C564.529236,186.296631 564.053223,186.621872 563.274109,186.969650 
z"/>
<path fill="#30C7ED" opacity="1.000000" stroke="none" 
	d="
M561.273804,187.970337 
	C561.446899,187.667847 561.923096,187.343155 562.701172,186.994415 
	C562.527710,187.296310 562.052246,187.622223 561.273804,187.970337 
z"/>
<path fill="#30C7ED" opacity="1.000000" stroke="none" 
	d="
M565.196106,185.896957 
	C565.073059,185.673218 565.266724,185.413101 565.774780,185.113770 
	C565.896057,185.334778 565.703979,185.596786 565.196106,185.896957 
z"/>
<path fill="#30C7ED" opacity="1.000000" stroke="none" 
	d="
M456.337891,324.994354 
	C457.097046,324.018890 458.223877,323.035339 459.674866,321.986328 
	C458.901184,322.942688 457.803345,323.964478 456.337891,324.994354 
z"/>
<path fill="#30C7ED" opacity="1.000000" stroke="none" 
	d="
M461.246490,320.964966 
	C460.964935,320.555908 460.987244,320.110748 460.996582,319.331360 
	C461.505096,319.235992 462.026520,319.474854 462.547974,319.713715 
	C462.215424,320.118774 461.882874,320.523834 461.246490,320.964966 
z"/>
<path fill="#E2E2E2" opacity="1.000000" stroke="none" 
	d="
M485.046112,257.990479 
	C487.383362,255.241394 489.720612,252.492325 492.237946,249.446411 
	C492.717010,249.135925 492.998810,249.059235 493.947754,248.936401 
	C499.098755,249.321457 503.565399,249.689621 507.855133,250.335663 
	C505.067017,253.342697 502.455841,256.071869 499.619934,258.859680 
	C499.395203,258.918304 498.946930,259.040161 498.503174,259.032043 
	C493.721649,258.679474 489.383881,258.334961 485.046112,257.990479 
z"/>
<path fill="#FAFEFE" opacity="1.000000" stroke="none" 
	d="
M508.032074,250.057800 
	C503.565399,249.689621 499.098755,249.321457 494.168396,248.921890 
	C499.891083,245.907425 506.077454,242.924377 512.640381,239.830017 
	C513.178711,239.771332 513.340576,239.823929 513.745239,239.954865 
	C514.931824,241.513657 515.875671,242.994095 516.626160,244.936829 
	C513.962219,246.937332 511.491516,248.475555 508.772980,250.009674 
	C508.525116,250.005554 508.032074,250.057800 508.032074,250.057800 
z"/>
<path fill="#D9E2E4" opacity="1.000000" stroke="none" 
	d="
M491.708130,286.050690 
	C487.588348,281.401581 483.468567,276.752502 479.028259,271.927429 
	C480.246124,267.946533 481.784515,264.141602 483.919739,260.289062 
	C487.403046,263.608887 490.289459,266.976318 493.247101,270.531250 
	C493.318329,270.718750 493.428406,271.104950 493.261322,271.489380 
	C492.632202,276.599457 492.170166,281.325073 491.708130,286.050690 
z"/>
<path fill="#FAFEFE" opacity="1.000000" stroke="none" 
	d="
M493.175842,270.343781 
	C490.289459,266.976318 487.403046,263.608887 484.206085,260.091614 
	C484.107910,259.396179 484.320251,258.850555 484.789368,258.147705 
	C489.383881,258.334961 493.721649,258.679474 498.422607,259.361816 
	C496.915802,263.247711 495.045837,266.795746 493.175842,270.343781 
z"/>
<path fill="#E2E2E2" opacity="1.000000" stroke="none" 
	d="
M172.180115,545.249939 
	C173.320023,543.433838 174.222595,541.895935 175.720856,539.342957 
	C176.542816,541.450562 177.600006,542.772583 177.360535,543.789246 
	C176.360458,548.035217 168.726654,553.746460 164.194504,553.990479 
	C158.761963,554.283020 153.255188,550.420349 150.809265,544.601685 
	C148.734131,539.665039 149.993896,532.961487 154.108856,529.563171 
	C156.088837,527.928040 158.614258,526.748901 161.085358,525.993347 
	C162.460022,525.573059 164.230698,526.447693 165.869766,527.515137 
	C159.760239,529.482422 154.611282,531.933411 154.070786,538.832642 
	C153.696167,543.614685 157.040329,546.843872 160.734558,548.494507 
	C164.648834,550.243530 168.917191,549.224365 172.180115,545.249939 
z"/>
<path fill="#0ABFEC" opacity="1.000000" stroke="none" 
	d="
M520.934082,261.848145 
	C524.601685,261.652466 528.269226,261.456787 532.373291,261.290283 
	C545.029175,265.864227 550.409119,274.246826 548.991882,286.533051 
	C547.592712,298.662659 536.931030,309.450531 524.823608,310.987335 
	C509.575806,312.922791 496.283051,304.115356 493.071228,289.452606 
	C495.606415,291.977600 497.519348,289.766815 499.678101,289.132172 
	C500.585083,290.899628 501.205322,292.456787 502.067902,293.865570 
	C507.193298,302.236450 517.421509,306.041473 526.783264,303.123047 
	C536.117798,300.213104 542.378418,291.558289 542.009399,282.073853 
	C541.708557,274.340240 535.533325,268.220398 527.883362,268.074249 
	C520.542419,267.934021 514.087585,273.699341 513.281860,281.115997 
	C512.804138,285.513611 515.616028,289.238007 519.755859,289.690887 
	C523.683167,290.120514 526.493347,287.484589 526.930298,282.758728 
	C524.933594,282.472931 522.924866,282.185394 520.870789,281.891357 
	C522.228821,276.777588 525.104248,274.630585 528.992981,275.459442 
	C533.133301,276.341949 535.499329,280.094574 534.726257,284.552856 
	C533.371338,292.367035 525.967651,297.978943 518.528625,296.830475 
	C510.185791,295.542419 504.696777,287.846283 506.233459,279.265930 
	C507.768372,270.695312 512.810120,264.933502 520.934082,261.848145 
z"/>
<path fill="#02A7D1" opacity="1.000000" stroke="none" 
	d="
M499.503357,288.853271 
	C497.519348,289.766815 495.606415,291.977600 493.083099,289.053711 
	C492.746857,288.920654 492.725433,288.772369 492.767975,288.398865 
	C492.598022,287.697906 492.385529,287.370422 492.173035,287.042938 
	C492.094513,286.878021 492.015961,286.713104 491.822784,286.299438 
	C492.170166,281.325073 492.632202,276.599457 493.500610,271.668060 
	C495.603424,272.984619 497.299896,274.506927 499.050873,276.487183 
	C499.238037,280.914520 499.370697,284.883881 499.503357,288.853271 
z"/>
<path fill="#0ABFEC" opacity="1.000000" stroke="none" 
	d="
M492.151855,287.348572 
	C492.385529,287.370422 492.598022,287.697906 492.797180,288.329895 
	C492.566132,288.307648 492.348389,287.980896 492.151855,287.348572 
z"/>
<path fill="#F5FBFD" opacity="1.000000" stroke="none" 
	d="
M499.678101,289.132172 
	C499.370697,284.883881 499.238037,280.914520 499.299255,276.223633 
	C502.098694,270.383179 504.704315,265.264252 507.511505,260.129517 
	C507.713104,260.113739 508.110291,260.037689 508.110291,260.037689 
	C512.188904,260.465179 516.267456,260.892670 520.640076,261.584137 
	C512.810120,264.933502 507.768372,270.695312 506.233459,279.265930 
	C504.696777,287.846283 510.185791,295.542419 518.528625,296.830475 
	C525.967651,297.978943 533.371338,292.367035 534.726257,284.552856 
	C535.499329,280.094574 533.133301,276.341949 528.992981,275.459442 
	C525.104248,274.630585 522.228821,276.777588 520.870789,281.891357 
	C522.924866,282.185394 524.933594,282.472931 526.930298,282.758728 
	C526.493347,287.484589 523.683167,290.120514 519.755859,289.690887 
	C515.616028,289.238007 512.804138,285.513611 513.281860,281.115997 
	C514.087585,273.699341 520.542419,267.934021 527.883362,268.074249 
	C535.533325,268.220398 541.708557,274.340240 542.009399,282.073853 
	C542.378418,291.558289 536.117798,300.213104 526.783264,303.123047 
	C517.421509,306.041473 507.193298,302.236450 502.067902,293.865570 
	C501.205322,292.456787 500.585083,290.899628 499.678101,289.132172 
z"/>
<path fill="#02A7D1" opacity="1.000000" stroke="none" 
	d="
M508.262939,259.744690 
	C508.110291,260.037689 507.713104,260.113739 507.063110,260.083984 
	C504.223602,259.636475 502.034149,259.218750 499.844666,258.801025 
	C502.455841,256.071869 505.067017,253.342697 507.855133,250.335663 
	C508.032074,250.057800 508.525116,250.005554 509.141907,250.174316 
	C513.159424,250.836670 516.560120,251.330261 519.960815,251.823853 
	C516.112427,254.366486 512.263977,256.909119 508.262939,259.744690 
z"/>
<path fill="#0ABFEC" opacity="1.000000" stroke="none" 
	d="
M520.258301,251.831207 
	C516.560120,251.330261 513.159424,250.836670 509.389771,250.178421 
	C511.491516,248.475555 513.962219,246.937332 516.740784,245.248535 
	C517.220154,245.157501 517.391541,245.217026 517.834045,245.302795 
	C519.385620,246.970551 520.666138,248.612045 521.986572,250.575165 
	C521.536194,251.210739 521.045959,251.524643 520.258301,251.831207 
z"/>
<path fill="#0ABFEC" opacity="1.000000" stroke="none" 
	d="
M499.619934,258.859680 
	C502.034149,259.218750 504.223602,259.636475 506.861511,260.099762 
	C504.704315,265.264252 502.098694,270.383179 499.244690,275.765686 
	C497.299896,274.506927 495.603424,272.984619 493.667694,271.283630 
	C493.428406,271.104950 493.318329,270.718750 493.247070,270.531250 
	C495.045837,266.795746 496.915802,263.247711 498.866333,259.369934 
	C498.946930,259.040161 499.395203,258.918304 499.619934,258.859680 
z"/>
</svg>